<svg xmlns="http://www.w3.org/2000/svg" enable-background="new 0 0 64 64" viewBox="0 0 64 64"><path fill="#FBB040" d="M3.2,20.1V57h57.7V20.1H3.2z M16.8,50.2c0,1.3-1.1,2.4-2.4,2.4h-4.3c-1.3,0-2.4-1.1-2.4-2.4v-1.6
		c0-1.3,1.1-2.4,2.4-2.4h4.3c1.3,0,2.4,1.1,2.4,2.4V50.2z M16.8,39.3c0,1.3-1.1,2.4-2.4,2.4h-4.3c-1.3,0-2.4-1.1-2.4-2.4v-1.6
		c0-1.3,1.1-2.4,2.4-2.4h4.3c1.3,0,2.4,1.1,2.4,2.4V39.3z M16.8,28.5c0,1.3-1.1,2.4-2.4,2.4h-4.3c-1.3,0-2.4-1.1-2.4-2.4v-1.6
		c0-1.3,1.1-2.4,2.4-2.4h4.3c1.3,0,2.4,1.1,2.4,2.4V28.5z M30,50.2c0,1.3-1.1,2.4-2.4,2.4h-4.3c-1.3,0-2.4-1.1-2.4-2.4v-1.6
		c0-1.3,1.1-2.4,2.4-2.4h4.3c1.3,0,2.4,1.1,2.4,2.4V50.2z M30,39.3c0,1.3-1.1,2.4-2.4,2.4h-4.3c-1.3,0-2.4-1.1-2.4-2.4v-1.6
		c0-1.3,1.1-2.4,2.4-2.4h4.3c1.3,0,2.4,1.1,2.4,2.4V39.3z M30,28.5c0,1.3-1.1,2.4-2.4,2.4h-4.3c-1.3,0-2.4-1.1-2.4-2.4v-1.6
		c0-1.3,1.1-2.4,2.4-2.4h4.3c1.3,0,2.4,1.1,2.4,2.4V28.5z M43.1,50.2c0,1.3-1.1,2.4-2.4,2.4h-4.3c-1.3,0-2.4-1.1-2.4-2.4v-1.6
		c0-1.3,1.1-2.4,2.4-2.4h4.3c1.3,0,2.4,1.1,2.4,2.4V50.2z M43.1,39.3c0,1.3-1.1,2.4-2.4,2.4h-4.3c-1.3,0-2.4-1.1-2.4-2.4v-1.6
		c0-1.3,1.1-2.4,2.4-2.4h4.3c1.3,0,2.4,1.1,2.4,2.4V39.3z M43.1,28.5c0,1.3-1.1,2.4-2.4,2.4h-4.3c-1.3,0-2.4-1.1-2.4-2.4v-1.6
		c0-1.3,1.1-2.4,2.4-2.4h4.3c1.3,0,2.4,1.1,2.4,2.4V28.5z M56.3,50.2c0,1.3-1.1,2.4-2.4,2.4h-4.3c-1.3,0-2.4-1.1-2.4-2.4v-1.6
		c0-1.3,1.1-2.4,2.4-2.4h4.3c1.3,0,2.4,1.1,2.4,2.4V50.2z M56.3,39.3c0,1.3-1.1,2.4-2.4,2.4h-4.3c-1.3,0-2.4-1.1-2.4-2.4v-1.6
		c0-1.3,1.1-2.4,2.4-2.4h4.3c1.3,0,2.4,1.1,2.4,2.4V39.3z M56.3,28.5c0,1.3-1.1,2.4-2.4,2.4h-4.3c-1.3,0-2.4-1.1-2.4-2.4v-1.6
		c0-1.3,1.1-2.4,2.4-2.4h4.3c1.3,0,2.4,1.1,2.4,2.4V28.5z"/><path fill="#2BB673" d="M16.8 48.6v1.6c0 1.3-1.1 2.4-2.4 2.4h-4.3c-1.3 0-2.4-1.1-2.4-2.4v-1.6c0-1.3 1.1-2.4 2.4-2.4h4.3C15.7 46.2 16.8 47.3 16.8 48.6zM30 48.6v1.6c0 1.3-1.1 2.4-2.4 2.4h-4.3c-1.3 0-2.4-1.1-2.4-2.4v-1.6c0-1.3 1.1-2.4 2.4-2.4h4.3C28.9 46.2 30 47.3 30 48.6zM43.1 48.6v1.6c0 1.3-1.1 2.4-2.4 2.4h-4.3c-1.3 0-2.4-1.1-2.4-2.4v-1.6c0-1.3 1.1-2.4 2.4-2.4h4.3C42 46.2 43.1 47.3 43.1 48.6zM56.3 48.6v1.6c0 1.3-1.1 2.4-2.4 2.4h-4.3c-1.3 0-2.4-1.1-2.4-2.4v-1.6c0-1.3 1.1-2.4 2.4-2.4h4.3C55.2 46.2 56.3 47.3 56.3 48.6zM56.3 37.7v1.6c0 1.3-1.1 2.4-2.4 2.4h-4.3c-1.3 0-2.4-1.1-2.4-2.4v-1.6c0-1.3 1.1-2.4 2.4-2.4h4.3C55.2 35.3 56.3 36.4 56.3 37.7zM56.3 26.9v1.6c0 1.3-1.1 2.4-2.4 2.4h-4.3c-1.3 0-2.4-1.1-2.4-2.4v-1.6c0-1.3 1.1-2.4 2.4-2.4h4.3C55.2 24.5 56.3 25.6 56.3 26.9zM43.1 37.7v1.6c0 1.3-1.1 2.4-2.4 2.4h-4.3c-1.3 0-2.4-1.1-2.4-2.4v-1.6c0-1.3 1.1-2.4 2.4-2.4h4.3C42 35.3 43.1 36.4 43.1 37.7zM43.1 26.9v1.6c0 1.3-1.1 2.4-2.4 2.4h-4.3c-1.3 0-2.4-1.1-2.4-2.4v-1.6c0-1.3 1.1-2.4 2.4-2.4h4.3C42 24.5 43.1 25.6 43.1 26.9zM30 37.7v1.6c0 1.3-1.1 2.4-2.4 2.4h-4.3c-1.3 0-2.4-1.1-2.4-2.4v-1.6c0-1.3 1.1-2.4 2.4-2.4h4.3C28.9 35.3 30 36.4 30 37.7zM30 26.9v1.6c0 1.3-1.1 2.4-2.4 2.4h-4.3c-1.3 0-2.4-1.1-2.4-2.4v-1.6c0-1.3 1.1-2.4 2.4-2.4h4.3C28.9 24.5 30 25.6 30 26.9zM16.8 26.9v1.6c0 1.3-1.1 2.4-2.4 2.4h-4.3c-1.3 0-2.4-1.1-2.4-2.4v-1.6c0-1.3 1.1-2.4 2.4-2.4h4.3C15.7 24.5 16.8 25.6 16.8 26.9zM16.8 37.7v1.6c0 1.3-1.1 2.4-2.4 2.4h-4.3c-1.3 0-2.4-1.1-2.4-2.4v-1.6c0-1.3 1.1-2.4 2.4-2.4h4.3C15.7 35.3 16.8 36.4 16.8 37.7z"/><rect width="57.7" height="8.1" x="3.2" y="12.1" fill="#00AEEF"/><path fill="#EF4136" d="M51.9 7h1.7C55 7 56 8.1 56 9.4v5.4c0 1.3-1.1 2.4-2.4 2.4h-1.7c-1.3 0-2.4-1.1-2.4-2.4V9.4C49.6 8.1 50.6 7 51.9 7zM41.5 7h1.7c1.3 0 2.4 1.1 2.4 2.4v5.4c0 1.3-1.1 2.4-2.4 2.4h-1.7c-1.3 0-2.4-1.1-2.4-2.4V9.4C39.2 8.1 40.2 7 41.5 7zM31.1 7h1.7c1.3 0 2.4 1.1 2.4 2.4v5.4c0 1.3-1.1 2.4-2.4 2.4h-1.7c-1.3 0-2.4-1.1-2.4-2.4V9.4C28.8 8.1 29.8 7 31.1 7zM20.7 7h1.7c1.3 0 2.4 1.1 2.4 2.4v5.4c0 1.3-1.1 2.4-2.4 2.4h-1.7c-1.3 0-2.4-1.1-2.4-2.4V9.4C18.4 8.1 19.4 7 20.7 7zM10.3 7H12c1.3 0 2.4 1.1 2.4 2.4v5.4c0 1.3-1.1 2.4-2.4 2.4h-1.7C9 17.1 8 16 8 14.7V9.4C8 8.1 9 7 10.3 7z"/></svg>