<?xml version="1.0" encoding="UTF-8"?><svg xmlns="http://www.w3.org/2000/svg" viewBox="0 0 75 66"><defs><style>.cls-1{fill:#d0d3d6;}.cls-2{fill:#bdc3c7;}.cls-3{fill:#ecf0f1;}.cls-4{fill:#192730;}.cls-5{fill:#213140;}.cls-6{fill:#375667;opacity:0.4;}</style></defs><title>laptop mac iphone</title><g id="Layer_2" data-name="Layer 2"><g id="Layer_1-2" data-name="Layer 1"><path class="cls-1" d="M43.94 53H30.06c0 6.55-.24 10.92-5.06 12h24c-4.83-1.08-5.06-5.45-5.06-12z" fill="#d0d3d6"/><path class="cls-2" d="M29.79 59h14.42a44.8 44.8 0 0 1-.28-6H30.06a44.8 44.8 0 0 1-.27 6z" fill="#bdc3c7"/><path class="cls-3" d="M0 52a4 4 0 0 0 4 4h67a4 4 0 0 0 4-4v-5H0z" fill="#ecf0f1"/><path class="cls-4" d="M71 0H4a4 4 0 0 0-4 4v43h75V4a4 4 0 0 0-4-4z" fill="#192730"/><path class="cls-5" fill="#213140" d="M3 3h69v41H3z"/><path class="cls-6" d="M75 4a4 4 0 0 0-4-4H32.8L75 42.12z" fill="#375667" opacity="0.4"/><circle class="cls-4" cx="37.5" cy="51.5" r="1.85" fill="#192730"/><path class="cls-2" fill="#bdc3c7" d="M24 65h26v1H24z"/></g></g><metadata><rdf:RDF xmlns:rdf="http://www.w3.org/1999/02/22-rdf-syntax-ns#" xmlns:rdfs="http://www.w3.org/2000/01/rdf-schema#" xmlns:dc="http://purl.org/dc/elements/1.1/"><rdf:Description about="https://iconscout.com/legal#licenses" dc:title="laptop,mac,iphone" dc:description="laptop,mac,iphone" dc:publisher="Iconscout" dc:date="2017-09-14" dc:format="image/svg+xml" dc:language="en"><dc:creator><rdf:Bag><rdf:li>Buatoom</rdf:li></rdf:Bag></dc:creator></rdf:Description></rdf:RDF></metadata></svg>